<?xml version="1.0" encoding="UTF-8" standalone="no"?>
<!DOCTYPE svg PUBLIC "-//W3C//DTD SVG 1.1//EN"
 "http://www.w3.org/Graphics/SVG/1.1/DTD/svg11.dtd">
<!-- Generated by graphviz version 2.40.1 (20161225.0304)
 -->
<!-- Title: dependencies Pages: 1 -->
<svg width="650pt" height="349pt"
 viewBox="0.00 0.00 650.00 349.00" xmlns="http://www.w3.org/2000/svg" xmlns:xlink="http://www.w3.org/1999/xlink">
<g id="graph0" class="graph" transform="scale(1 1) rotate(0) translate(4 345)">
<title>dependencies</title>
<polygon fill="#ffffff" stroke="transparent" points="-4,4 -4,-345 646,-345 646,4 -4,4"/>
<text text-anchor="start" x="300.0091" y="-42.4" font-family="sans-serif" font-weight="bold" font-size="14.00" fill="#000000">Legend</text>
<polygon fill="#ffffb3" stroke="transparent" points="87,-10 87,-30 107,-30 107,-10 87,-10"/>
<text text-anchor="start" x="110.629" y="-15.4" font-family="sans-serif" font-size="14.00" fill="#000000"> &#160;Declarations</text>
<polygon fill="#8dd3c7" stroke="transparent" points="200,-10 200,-30 220,-30 220,-10 200,-10"/>
<text text-anchor="start" x="223.7251" y="-15.4" font-family="sans-serif" font-size="14.00" fill="#000000"> &#160;Module</text>
<polygon fill="#80b1d3" stroke="transparent" points="286,-10 286,-30 306,-30 306,-10 286,-10"/>
<text text-anchor="start" x="309.7812" y="-15.4" font-family="sans-serif" font-size="14.00" fill="#000000"> &#160;Bootstrap</text>
<polygon fill="#fdb462" stroke="transparent" points="383,-10 383,-30 403,-30 403,-10 383,-10"/>
<text text-anchor="start" x="406.6732" y="-15.4" font-family="sans-serif" font-size="14.00" fill="#000000"> &#160;Providers</text>
<polygon fill="#fb8072" stroke="transparent" points="479,-10 479,-30 499,-30 499,-10 479,-10"/>
<text text-anchor="start" x="502.7258" y="-15.4" font-family="sans-serif" font-size="14.00" fill="#000000"> &#160;Exports</text>
<g id="clust1" class="cluster">
<title>cluster_InternationalPhoneNumberModule</title>
<polygon fill="none" stroke="#000000" stroke-dasharray="1,5" points="8,-70 8,-333 634,-333 634,-70 8,-70"/>
</g>
<g id="clust2" class="cluster">
<title>cluster_InternationalPhoneNumberModule_declarations</title>
<polygon fill="none" stroke="#000000" points="184,-143 184,-195 626,-195 626,-143 184,-143"/>
</g>
<g id="clust5" class="cluster">
<title>cluster_InternationalPhoneNumberModule_PhoneNumberComponent_providers</title>
<polygon fill="none" stroke="#000000" points="75,-78 75,-130 567,-130 567,-78 75,-78"/>
</g>
<g id="clust7" class="cluster">
<title>cluster_InternationalPhoneNumberModule_exports</title>
<polygon fill="none" stroke="#000000" points="194,-273 194,-325 484,-325 484,-273 194,-273"/>
</g>
<g id="clust9" class="cluster">
<title>cluster_InternationalPhoneNumberModule_providers</title>
<polygon fill="none" stroke="#000000" points="16,-143 16,-195 176,-195 176,-143 16,-143"/>
</g>
<!-- CountryPipe -->
<g id="node1" class="node">
<title>CountryPipe</title>
<polygon fill="#ffffb3" stroke="#000000" points="618.2759,-187 531.7241,-187 531.7241,-151 618.2759,-151 618.2759,-187"/>
<text text-anchor="middle" x="575" y="-164.8" font-family="Times,serif" font-size="14.00" fill="#000000">CountryPipe</text>
</g>
<!-- InternationalPhoneNumberModule -->
<g id="node4" class="node">
<title>InternationalPhoneNumberModule</title>
<polygon fill="#8dd3c7" stroke="#000000" points="463.9468,-252 460.9468,-256 439.9468,-256 436.9468,-252 252.0532,-252 252.0532,-216 463.9468,-216 463.9468,-252"/>
<text text-anchor="middle" x="358" y="-229.8" font-family="Times,serif" font-size="14.00" fill="#000000">InternationalPhoneNumberModule</text>
</g>
<!-- CountryPipe&#45;&gt;InternationalPhoneNumberModule -->
<g id="edge1" class="edge">
<title>CountryPipe&#45;&gt;InternationalPhoneNumberModule</title>
<path fill="none" stroke="#000000" d="M575,-187.1061C575,-206.3391 575,-234 575,-234 575,-234 473.9572,-234 473.9572,-234"/>
<polygon fill="#000000" stroke="#000000" points="473.9573,-230.5001 463.9572,-234 473.9572,-237.5001 473.9573,-230.5001"/>
</g>
<!-- OnlyNumberDirective -->
<g id="node2" class="node">
<title>OnlyNumberDirective</title>
<polygon fill="#ffffb3" stroke="#000000" points="513.9524,-187 372.0476,-187 372.0476,-151 513.9524,-151 513.9524,-187"/>
<text text-anchor="middle" x="443" y="-164.8" font-family="Times,serif" font-size="14.00" fill="#000000">OnlyNumberDirective</text>
</g>
<!-- OnlyNumberDirective&#45;&gt;InternationalPhoneNumberModule -->
<g id="edge2" class="edge">
<title>OnlyNumberDirective&#45;&gt;InternationalPhoneNumberModule</title>
<path fill="none" stroke="#000000" d="M417.9986,-187.1061C417.9986,-187.1061 417.9986,-205.991 417.9986,-205.991"/>
<polygon fill="#000000" stroke="#000000" points="414.4987,-205.9909 417.9986,-215.991 421.4987,-205.991 414.4987,-205.9909"/>
</g>
<!-- PhoneNumberComponent -->
<g id="node3" class="node">
<title>PhoneNumberComponent</title>
<polygon fill="#ffffb3" stroke="#000000" points="354.2021,-187 191.7979,-187 191.7979,-151 354.2021,-151 354.2021,-187"/>
<text text-anchor="middle" x="273" y="-164.8" font-family="Times,serif" font-size="14.00" fill="#000000">PhoneNumberComponent</text>
</g>
<!-- PhoneNumberComponent&#45;&gt;InternationalPhoneNumberModule -->
<g id="edge3" class="edge">
<title>PhoneNumberComponent&#45;&gt;InternationalPhoneNumberModule</title>
<path fill="none" stroke="#000000" d="M303.0638,-187.1061C303.0638,-187.1061 303.0638,-205.991 303.0638,-205.991"/>
<polygon fill="#000000" stroke="#000000" points="299.5639,-205.9909 303.0638,-215.991 306.5639,-205.991 299.5639,-205.9909"/>
</g>
<!-- CountryPipe  -->
<g id="node7" class="node">
<title>CountryPipe </title>
<polygon fill="#fb8072" stroke="#000000" points="476.276,-317 385.724,-317 385.724,-281 476.276,-281 476.276,-317"/>
<text text-anchor="middle" x="431" y="-294.8" font-family="Times,serif" font-size="14.00" fill="#000000">CountryPipe </text>
</g>
<!-- InternationalPhoneNumberModule&#45;&gt;CountryPipe  -->
<g id="edge6" class="edge">
<title>InternationalPhoneNumberModule&#45;&gt;CountryPipe </title>
<path fill="none" stroke="#000000" stroke-dasharray="5,2" d="M424.9178,-252.1061C424.9178,-252.1061 424.9178,-270.991 424.9178,-270.991"/>
<polygon fill="#000000" stroke="#000000" points="421.4179,-270.9909 424.9178,-280.991 428.4179,-270.991 421.4179,-270.9909"/>
</g>
<!-- PhoneNumberComponent  -->
<g id="node8" class="node">
<title>PhoneNumberComponent </title>
<polygon fill="#fb8072" stroke="#000000" points="367.7023,-317 202.2977,-317 202.2977,-281 367.7023,-281 367.7023,-317"/>
<text text-anchor="middle" x="285" y="-294.8" font-family="Times,serif" font-size="14.00" fill="#000000">PhoneNumberComponent </text>
</g>
<!-- InternationalPhoneNumberModule&#45;&gt;PhoneNumberComponent  -->
<g id="edge7" class="edge">
<title>InternationalPhoneNumberModule&#45;&gt;PhoneNumberComponent </title>
<path fill="none" stroke="#000000" stroke-dasharray="5,2" d="M309.9388,-252.1061C309.9388,-252.1061 309.9388,-270.991 309.9388,-270.991"/>
<polygon fill="#000000" stroke="#000000" points="306.4389,-270.9909 309.9388,-280.991 313.4389,-270.991 306.4389,-270.9909"/>
</g>
<!-- COUNTER_CONTROL_ACCESSOR -->
<g id="node5" class="node">
<title>COUNTER_CONTROL_ACCESSOR</title>
<ellipse fill="#fdb462" stroke="#000000" cx="397" cy="-104" rx="161.5593" ry="18"/>
<text text-anchor="middle" x="397" y="-99.8" font-family="Times,serif" font-size="14.00" fill="#000000">COUNTER_CONTROL_ACCESSOR</text>
</g>
<!-- COUNTER_CONTROL_ACCESSOR&#45;&gt;PhoneNumberComponent -->
<g id="edge4" class="edge">
<title>COUNTER_CONTROL_ACCESSOR&#45;&gt;PhoneNumberComponent</title>
<path fill="none" stroke="#000000" d="M294.6608,-118.104C294.6608,-118.104 294.6608,-140.7209 294.6608,-140.7209"/>
<polygon fill="#000000" stroke="#000000" points="291.1609,-140.7209 294.6608,-150.7209 298.1609,-140.7209 291.1609,-140.7209"/>
</g>
<!-- VALIDATOR -->
<g id="node6" class="node">
<title>VALIDATOR</title>
<ellipse fill="#fdb462" stroke="#000000" cx="150" cy="-104" rx="67.1946" ry="18"/>
<text text-anchor="middle" x="150" y="-99.8" font-family="Times,serif" font-size="14.00" fill="#000000">VALIDATOR</text>
</g>
<!-- VALIDATOR&#45;&gt;PhoneNumberComponent -->
<g id="edge5" class="edge">
<title>VALIDATOR&#45;&gt;PhoneNumberComponent</title>
<path fill="none" stroke="#000000" d="M204.6231,-114.7334C204.6231,-114.7334 204.6231,-140.8723 204.6231,-140.8723"/>
<polygon fill="#000000" stroke="#000000" points="201.1232,-140.8722 204.6231,-150.8723 208.1232,-140.8723 201.1232,-140.8722"/>
</g>
<!-- CountryService -->
<g id="node9" class="node">
<title>CountryService</title>
<ellipse fill="#fdb462" stroke="#000000" cx="96" cy="-169" rx="71.7892" ry="18"/>
<text text-anchor="middle" x="96" y="-164.8" font-family="Times,serif" font-size="14.00" fill="#000000">CountryService</text>
</g>
<!-- CountryService&#45;&gt;InternationalPhoneNumberModule -->
<g id="edge8" class="edge">
<title>CountryService&#45;&gt;InternationalPhoneNumberModule</title>
<path fill="none" stroke="#000000" d="M96,-187.1061C96,-206.3391 96,-234 96,-234 96,-234 241.8123,-234 241.8123,-234"/>
<polygon fill="#000000" stroke="#000000" points="241.8123,-237.5001 251.8123,-234 241.8122,-230.5001 241.8123,-237.5001"/>
</g>
</g>
</svg>
