<?xml version="1.0" encoding="UTF-8" standalone="no"?>
<!DOCTYPE svg PUBLIC "-//W3C//DTD SVG 1.1//EN"
 "http://www.w3.org/Graphics/SVG/1.1/DTD/svg11.dtd">
<!-- Generated by graphviz version 2.40.1 (20161225.0304)
 -->
<!-- Title: dependencies Pages: 1 -->
<svg width="998pt" height="425pt"
 viewBox="0.00 0.00 998.00 425.00" xmlns="http://www.w3.org/2000/svg" xmlns:xlink="http://www.w3.org/1999/xlink">
<g id="graph0" class="graph" transform="scale(1 1) rotate(0) translate(4 421)">
<title>dependencies</title>
<polygon fill="#ffffff" stroke="transparent" points="-4,4 -4,-421 994,-421 994,4 -4,4"/>
<text text-anchor="start" x="474.0091" y="-42.4" font-family="sans-serif" font-weight="bold" font-size="14.00" fill="#000000">Legend</text>
<polygon fill="#ffffb3" stroke="transparent" points="261,-10 261,-30 281,-30 281,-10 261,-10"/>
<text text-anchor="start" x="284.629" y="-15.4" font-family="sans-serif" font-size="14.00" fill="#000000"> &#160;Declarations</text>
<polygon fill="#8dd3c7" stroke="transparent" points="374,-10 374,-30 394,-30 394,-10 374,-10"/>
<text text-anchor="start" x="397.7251" y="-15.4" font-family="sans-serif" font-size="14.00" fill="#000000"> &#160;Module</text>
<polygon fill="#80b1d3" stroke="transparent" points="460,-10 460,-30 480,-30 480,-10 460,-10"/>
<text text-anchor="start" x="483.7812" y="-15.4" font-family="sans-serif" font-size="14.00" fill="#000000"> &#160;Bootstrap</text>
<polygon fill="#fdb462" stroke="transparent" points="557,-10 557,-30 577,-30 577,-10 557,-10"/>
<text text-anchor="start" x="580.6732" y="-15.4" font-family="sans-serif" font-size="14.00" fill="#000000"> &#160;Providers</text>
<polygon fill="#fb8072" stroke="transparent" points="653,-10 653,-30 673,-30 673,-10 653,-10"/>
<text text-anchor="start" x="676.7258" y="-15.4" font-family="sans-serif" font-size="14.00" fill="#000000"> &#160;Exports</text>
<g id="clust1" class="cluster">
<title>cluster_AppModule</title>
<polygon fill="none" stroke="#000000" stroke-dasharray="1,5" points="519,-211 519,-409 893,-409 893,-211 519,-211"/>
</g>
<g id="clust2" class="cluster">
<title>cluster_AppModule_declarations</title>
<polygon fill="none" stroke="#000000" points="763,-219 763,-271 885,-271 885,-219 763,-219"/>
</g>
<g id="clust4" class="cluster">
<title>cluster_AppModule_imports</title>
<polygon fill="none" stroke="#000000" points="527,-219 527,-271 755,-271 755,-219 527,-219"/>
</g>
<g id="clust6" class="cluster">
<title>cluster_AppModule_bootstrap</title>
<polygon fill="none" stroke="#000000" points="670,-349 670,-401 794,-401 794,-349 670,-349"/>
</g>
<g id="clust8" class="cluster">
<title>cluster_InternationalPhoneNumberModule</title>
<polygon fill="none" stroke="#000000" stroke-dasharray="1,5" points="8,-70 8,-203 982,-203 982,-70 8,-70"/>
</g>
<g id="clust9" class="cluster">
<title>cluster_InternationalPhoneNumberModule_declarations</title>
<polygon fill="none" stroke="#000000" points="215,-143 215,-195 657,-195 657,-143 215,-143"/>
</g>
<g id="clust12" class="cluster">
<title>cluster_InternationalPhoneNumberModule_PhoneNumberComponent_providers</title>
<polygon fill="none" stroke="#000000" points="16,-78 16,-130 508,-130 508,-78 16,-78"/>
</g>
<g id="clust14" class="cluster">
<title>cluster_InternationalPhoneNumberModule_exports</title>
<polygon fill="none" stroke="#000000" points="516,-78 516,-130 806,-130 806,-78 516,-78"/>
</g>
<g id="clust16" class="cluster">
<title>cluster_InternationalPhoneNumberModule_providers</title>
<polygon fill="none" stroke="#000000" points="814,-78 814,-130 974,-130 974,-78 814,-78"/>
</g>
<!-- AppComponent -->
<g id="node1" class="node">
<title>AppComponent</title>
<polygon fill="#ffffb3" stroke="#000000" points="876.9399,-263 771.0601,-263 771.0601,-227 876.9399,-227 876.9399,-263"/>
<text text-anchor="middle" x="824" y="-240.8" font-family="Times,serif" font-size="14.00" fill="#000000">AppComponent</text>
</g>
<!-- AppModule -->
<g id="node2" class="node">
<title>AppModule</title>
<polygon fill="#8dd3c7" stroke="#000000" points="773.6571,-328 770.6571,-332 749.6571,-332 746.6571,-328 690.3429,-328 690.3429,-292 773.6571,-292 773.6571,-328"/>
<text text-anchor="middle" x="732" y="-305.8" font-family="Times,serif" font-size="14.00" fill="#000000">AppModule</text>
</g>
<!-- AppComponent&#45;&gt;AppModule -->
<g id="edge1" class="edge">
<title>AppComponent&#45;&gt;AppModule</title>
<path fill="none" stroke="#000000" d="M780.1489,-263.1061C780.1489,-282.3391 780.1489,-310 780.1489,-310 780.1489,-310 779.5194,-310 779.5194,-310"/>
<polygon fill="#000000" stroke="#000000" points="783.8543,-306.5002 773.8542,-310 783.8542,-313.5002 783.8543,-306.5002"/>
</g>
<!-- AppComponent  -->
<g id="node4" class="node">
<title>AppComponent </title>
<polygon fill="#80b1d3" stroke="#000000" points="786.439,-393 677.561,-393 677.561,-357 786.439,-357 786.439,-393"/>
<text text-anchor="middle" x="732" y="-370.8" font-family="Times,serif" font-size="14.00" fill="#000000">AppComponent </text>
</g>
<!-- AppModule&#45;&gt;AppComponent  -->
<g id="edge3" class="edge">
<title>AppModule&#45;&gt;AppComponent </title>
<path fill="none" stroke="#000000" stroke-dasharray="1,5" d="M732,-328.1061C732,-328.1061 732,-346.991 732,-346.991"/>
<polygon fill="#000000" stroke="#000000" points="728.5001,-346.9909 732,-356.991 735.5001,-346.991 728.5001,-346.9909"/>
</g>
<!-- InternationalPhoneNumberModule -->
<g id="node3" class="node">
<title>InternationalPhoneNumberModule</title>
<polygon fill="#8dd3c7" stroke="#000000" points="746.9468,-263 743.9468,-267 722.9468,-267 719.9468,-263 535.0532,-263 535.0532,-227 746.9468,-227 746.9468,-263"/>
<text text-anchor="middle" x="641" y="-240.8" font-family="Times,serif" font-size="14.00" fill="#000000">InternationalPhoneNumberModule</text>
</g>
<!-- InternationalPhoneNumberModule&#45;&gt;AppModule -->
<g id="edge2" class="edge">
<title>InternationalPhoneNumberModule&#45;&gt;AppModule</title>
<path fill="none" stroke="#000000" d="M718.5726,-263.1061C718.5726,-263.1061 718.5726,-281.991 718.5726,-281.991"/>
<polygon fill="#000000" stroke="#000000" points="715.0727,-281.9909 718.5726,-291.991 722.0727,-281.991 715.0727,-281.9909"/>
</g>
<!-- CountryPipe  -->
<g id="node10" class="node">
<title>CountryPipe </title>
<polygon fill="#fb8072" stroke="#000000" points="614.276,-122 523.724,-122 523.724,-86 614.276,-86 614.276,-122"/>
<text text-anchor="middle" x="569" y="-99.8" font-family="Times,serif" font-size="14.00" fill="#000000">CountryPipe </text>
</g>
<!-- InternationalPhoneNumberModule&#45;&gt;CountryPipe  -->
<g id="edge9" class="edge">
<title>InternationalPhoneNumberModule&#45;&gt;CountryPipe </title>
<path fill="none" stroke="#000000" stroke-dasharray="5,2" d="M553.7942,-226.8554C553.7942,-226.8554 553.7942,-132.075 553.7942,-132.075"/>
<polygon fill="#000000" stroke="#000000" points="557.2943,-132.075 553.7942,-122.075 550.2943,-132.075 557.2943,-132.075"/>
</g>
<!-- PhoneNumberComponent  -->
<g id="node11" class="node">
<title>PhoneNumberComponent </title>
<polygon fill="#fb8072" stroke="#000000" points="797.7023,-122 632.2977,-122 632.2977,-86 797.7023,-86 797.7023,-122"/>
<text text-anchor="middle" x="715" y="-99.8" font-family="Times,serif" font-size="14.00" fill="#000000">PhoneNumberComponent </text>
</g>
<!-- InternationalPhoneNumberModule&#45;&gt;PhoneNumberComponent  -->
<g id="edge10" class="edge">
<title>InternationalPhoneNumberModule&#45;&gt;PhoneNumberComponent </title>
<path fill="none" stroke="#000000" stroke-dasharray="5,2" d="M681.9163,-226.8554C681.9163,-226.8554 681.9163,-132.075 681.9163,-132.075"/>
<polygon fill="#000000" stroke="#000000" points="685.4164,-132.075 681.9163,-122.075 678.4164,-132.075 685.4164,-132.075"/>
</g>
<!-- CountryPipe -->
<g id="node5" class="node">
<title>CountryPipe</title>
<polygon fill="#ffffb3" stroke="#000000" points="649.2759,-187 562.7241,-187 562.7241,-151 649.2759,-151 649.2759,-187"/>
<text text-anchor="middle" x="606" y="-164.8" font-family="Times,serif" font-size="14.00" fill="#000000">CountryPipe</text>
</g>
<!-- CountryPipe&#45;&gt;InternationalPhoneNumberModule -->
<g id="edge4" class="edge">
<title>CountryPipe&#45;&gt;InternationalPhoneNumberModule</title>
<path fill="none" stroke="#000000" d="M606,-187.0109C606,-187.0109 606,-216.855 606,-216.855"/>
<polygon fill="#000000" stroke="#000000" points="602.5001,-216.8549 606,-226.855 609.5001,-216.855 602.5001,-216.8549"/>
</g>
<!-- OnlyNumberDirective -->
<g id="node6" class="node">
<title>OnlyNumberDirective</title>
<polygon fill="#ffffb3" stroke="#000000" points="544.9524,-187 403.0476,-187 403.0476,-151 544.9524,-151 544.9524,-187"/>
<text text-anchor="middle" x="474" y="-164.8" font-family="Times,serif" font-size="14.00" fill="#000000">OnlyNumberDirective</text>
</g>
<!-- OnlyNumberDirective&#45;&gt;InternationalPhoneNumberModule -->
<g id="edge5" class="edge">
<title>OnlyNumberDirective&#45;&gt;InternationalPhoneNumberModule</title>
<path fill="none" stroke="#000000" d="M540.0014,-187.0109C540.0014,-187.0109 540.0014,-216.855 540.0014,-216.855"/>
<polygon fill="#000000" stroke="#000000" points="536.5015,-216.8549 540.0014,-226.855 543.5015,-216.855 536.5015,-216.8549"/>
</g>
<!-- PhoneNumberComponent -->
<g id="node7" class="node">
<title>PhoneNumberComponent</title>
<polygon fill="#ffffb3" stroke="#000000" points="385.2021,-187 222.7979,-187 222.7979,-151 385.2021,-151 385.2021,-187"/>
<text text-anchor="middle" x="304" y="-164.8" font-family="Times,serif" font-size="14.00" fill="#000000">PhoneNumberComponent</text>
</g>
<!-- PhoneNumberComponent&#45;&gt;InternationalPhoneNumberModule -->
<g id="edge6" class="edge">
<title>PhoneNumberComponent&#45;&gt;InternationalPhoneNumberModule</title>
<path fill="none" stroke="#000000" d="M304,-187.0109C304,-209.4852 304,-245 304,-245 304,-245 524.8337,-245 524.8337,-245"/>
<polygon fill="#000000" stroke="#000000" points="524.8337,-248.5001 534.8337,-245 524.8336,-241.5001 524.8337,-248.5001"/>
</g>
<!-- COUNTER_CONTROL_ACCESSOR -->
<g id="node8" class="node">
<title>COUNTER_CONTROL_ACCESSOR</title>
<ellipse fill="#fdb462" stroke="#000000" cx="338" cy="-104" rx="161.5593" ry="18"/>
<text text-anchor="middle" x="338" y="-99.8" font-family="Times,serif" font-size="14.00" fill="#000000">COUNTER_CONTROL_ACCESSOR</text>
</g>
<!-- COUNTER_CONTROL_ACCESSOR&#45;&gt;PhoneNumberComponent -->
<g id="edge7" class="edge">
<title>COUNTER_CONTROL_ACCESSOR&#45;&gt;PhoneNumberComponent</title>
<path fill="none" stroke="#000000" d="M304,-121.7615C304,-121.7615 304,-140.8074 304,-140.8074"/>
<polygon fill="#000000" stroke="#000000" points="300.5001,-140.8074 304,-150.8074 307.5001,-140.8075 300.5001,-140.8074"/>
</g>
<!-- VALIDATOR -->
<g id="node9" class="node">
<title>VALIDATOR</title>
<ellipse fill="#fdb462" stroke="#000000" cx="91" cy="-104" rx="67.1946" ry="18"/>
<text text-anchor="middle" x="91" y="-99.8" font-family="Times,serif" font-size="14.00" fill="#000000">VALIDATOR</text>
</g>
<!-- VALIDATOR&#45;&gt;PhoneNumberComponent -->
<g id="edge8" class="edge">
<title>VALIDATOR&#45;&gt;PhoneNumberComponent</title>
<path fill="none" stroke="#000000" d="M91,-122.1061C91,-141.3391 91,-169 91,-169 91,-169 212.8662,-169 212.8662,-169"/>
<polygon fill="#000000" stroke="#000000" points="212.8662,-172.5001 222.8662,-169 212.8662,-165.5001 212.8662,-172.5001"/>
</g>
<!-- CountryService -->
<g id="node12" class="node">
<title>CountryService</title>
<ellipse fill="#fdb462" stroke="#000000" cx="894" cy="-104" rx="71.7892" ry="18"/>
<text text-anchor="middle" x="894" y="-99.8" font-family="Times,serif" font-size="14.00" fill="#000000">CountryService</text>
</g>
<!-- CountryService&#45;&gt;InternationalPhoneNumberModule -->
<g id="edge11" class="edge">
<title>CountryService&#45;&gt;InternationalPhoneNumberModule</title>
<path fill="none" stroke="#000000" d="M849.5375,-118.1865C849.5375,-127.1306 849.5375,-137 849.5375,-137 849.5375,-137 714.4449,-137 714.4449,-137 714.4449,-137 714.4449,-216.6793 714.4449,-216.6793"/>
<polygon fill="#000000" stroke="#000000" points="710.945,-216.6792 714.4449,-226.6793 717.945,-216.6793 710.945,-216.6792"/>
</g>
</g>
</svg>
