<?xml version="1.0" encoding="UTF-8" standalone="no"?>
<!DOCTYPE svg PUBLIC "-//W3C//DTD SVG 1.1//EN"
 "http://www.w3.org/Graphics/SVG/1.1/DTD/svg11.dtd">
<!-- Generated by graphviz version 2.40.1 (20161225.0304)
 -->
<!-- Title: dependencies Pages: 1 -->
<svg width="504pt" height="284pt"
 viewBox="0.00 0.00 504.00 284.00" xmlns="http://www.w3.org/2000/svg" xmlns:xlink="http://www.w3.org/1999/xlink">
<g id="graph0" class="graph" transform="scale(1 1) rotate(0) translate(4 280)">
<title>dependencies</title>
<polygon fill="#ffffff" stroke="transparent" points="-4,4 -4,-280 500,-280 500,4 -4,4"/>
<text text-anchor="start" x="227.0091" y="-42.4" font-family="sans-serif" font-weight="bold" font-size="14.00" fill="#000000">Legend</text>
<polygon fill="#ffffb3" stroke="transparent" points="14,-10 14,-30 34,-30 34,-10 14,-10"/>
<text text-anchor="start" x="37.629" y="-15.4" font-family="sans-serif" font-size="14.00" fill="#000000"> &#160;Declarations</text>
<polygon fill="#8dd3c7" stroke="transparent" points="127,-10 127,-30 147,-30 147,-10 127,-10"/>
<text text-anchor="start" x="150.7251" y="-15.4" font-family="sans-serif" font-size="14.00" fill="#000000"> &#160;Module</text>
<polygon fill="#80b1d3" stroke="transparent" points="213,-10 213,-30 233,-30 233,-10 213,-10"/>
<text text-anchor="start" x="236.7812" y="-15.4" font-family="sans-serif" font-size="14.00" fill="#000000"> &#160;Bootstrap</text>
<polygon fill="#fdb462" stroke="transparent" points="310,-10 310,-30 330,-30 330,-10 310,-10"/>
<text text-anchor="start" x="333.6732" y="-15.4" font-family="sans-serif" font-size="14.00" fill="#000000"> &#160;Providers</text>
<polygon fill="#fb8072" stroke="transparent" points="406,-10 406,-30 426,-30 426,-10 406,-10"/>
<text text-anchor="start" x="429.7258" y="-15.4" font-family="sans-serif" font-size="14.00" fill="#000000"> &#160;Exports</text>
<g id="clust1" class="cluster">
<title>cluster_AppModule</title>
<polygon fill="none" stroke="#000000" stroke-dasharray="1,5" points="60,-70 60,-268 200,-268 200,-70 60,-70"/>
</g>
<g id="clust2" class="cluster">
<title>cluster_AppModule_declarations</title>
<polygon fill="none" stroke="#000000" points="69,-78 69,-130 191,-130 191,-78 69,-78"/>
</g>
<g id="clust6" class="cluster">
<title>cluster_AppModule_bootstrap</title>
<polygon fill="none" stroke="#000000" points="68,-208 68,-260 192,-260 192,-208 68,-208"/>
</g>
<g id="clust8" class="cluster">
<title>cluster_PreventDoubleSubmitModule</title>
<polygon fill="none" stroke="#000000" stroke-dasharray="1,5" points="208,-70 208,-268 436,-268 436,-70 208,-70"/>
</g>
<g id="clust9" class="cluster">
<title>cluster_PreventDoubleSubmitModule_declarations</title>
<polygon fill="none" stroke="#000000" points="218,-78 218,-130 426,-130 426,-78 218,-78"/>
</g>
<g id="clust12" class="cluster">
<title>cluster_PreventDoubleSubmitModule_exports</title>
<polygon fill="none" stroke="#000000" points="216,-208 216,-260 428,-260 428,-208 216,-208"/>
</g>
<!-- AppComponent -->
<g id="node1" class="node">
<title>AppComponent</title>
<polygon fill="#ffffb3" stroke="#000000" points="182.9399,-122 77.0601,-122 77.0601,-86 182.9399,-86 182.9399,-122"/>
<text text-anchor="middle" x="130" y="-99.8" font-family="Times,serif" font-size="14.00" fill="#000000">AppComponent</text>
</g>
<!-- AppModule -->
<g id="node2" class="node">
<title>AppModule</title>
<polygon fill="#8dd3c7" stroke="#000000" points="171.6571,-187 168.6571,-191 147.6571,-191 144.6571,-187 88.3429,-187 88.3429,-151 171.6571,-151 171.6571,-187"/>
<text text-anchor="middle" x="130" y="-164.8" font-family="Times,serif" font-size="14.00" fill="#000000">AppModule</text>
</g>
<!-- AppComponent&#45;&gt;AppModule -->
<g id="edge1" class="edge">
<title>AppComponent&#45;&gt;AppModule</title>
<path fill="none" stroke="#000000" d="M130,-122.1061C130,-122.1061 130,-140.991 130,-140.991"/>
<polygon fill="#000000" stroke="#000000" points="126.5001,-140.9909 130,-150.991 133.5001,-140.991 126.5001,-140.9909"/>
</g>
<!-- AppComponent  -->
<g id="node3" class="node">
<title>AppComponent </title>
<polygon fill="#80b1d3" stroke="#000000" points="184.439,-252 75.561,-252 75.561,-216 184.439,-216 184.439,-252"/>
<text text-anchor="middle" x="130" y="-229.8" font-family="Times,serif" font-size="14.00" fill="#000000">AppComponent </text>
</g>
<!-- AppModule&#45;&gt;AppComponent  -->
<g id="edge2" class="edge">
<title>AppModule&#45;&gt;AppComponent </title>
<path fill="none" stroke="#000000" stroke-dasharray="1,5" d="M130,-187.1061C130,-187.1061 130,-205.991 130,-205.991"/>
<polygon fill="#000000" stroke="#000000" points="126.5001,-205.9909 130,-215.991 133.5001,-205.991 126.5001,-205.9909"/>
</g>
<!-- PreventDoubleSubmitDirective -->
<g id="node4" class="node">
<title>PreventDoubleSubmitDirective</title>
<polygon fill="#ffffb3" stroke="#000000" points="418.0126,-122 225.9874,-122 225.9874,-86 418.0126,-86 418.0126,-122"/>
<text text-anchor="middle" x="322" y="-99.8" font-family="Times,serif" font-size="14.00" fill="#000000">PreventDoubleSubmitDirective</text>
</g>
<!-- PreventDoubleSubmitModule -->
<g id="node5" class="node">
<title>PreventDoubleSubmitModule</title>
<polygon fill="#8dd3c7" stroke="#000000" points="413.979,-187 410.979,-191 389.979,-191 386.979,-187 230.021,-187 230.021,-151 413.979,-151 413.979,-187"/>
<text text-anchor="middle" x="322" y="-164.8" font-family="Times,serif" font-size="14.00" fill="#000000">PreventDoubleSubmitModule</text>
</g>
<!-- PreventDoubleSubmitDirective&#45;&gt;PreventDoubleSubmitModule -->
<g id="edge3" class="edge">
<title>PreventDoubleSubmitDirective&#45;&gt;PreventDoubleSubmitModule</title>
<path fill="none" stroke="#000000" d="M322,-122.1061C322,-122.1061 322,-140.991 322,-140.991"/>
<polygon fill="#000000" stroke="#000000" points="318.5001,-140.9909 322,-150.991 325.5001,-140.991 318.5001,-140.9909"/>
</g>
<!-- PreventDoubleSubmitDirective  -->
<g id="node6" class="node">
<title>PreventDoubleSubmitDirective </title>
<polygon fill="#fb8072" stroke="#000000" points="420.012,-252 223.988,-252 223.988,-216 420.012,-216 420.012,-252"/>
<text text-anchor="middle" x="322" y="-229.8" font-family="Times,serif" font-size="14.00" fill="#000000">PreventDoubleSubmitDirective </text>
</g>
<!-- PreventDoubleSubmitModule&#45;&gt;PreventDoubleSubmitDirective  -->
<g id="edge4" class="edge">
<title>PreventDoubleSubmitModule&#45;&gt;PreventDoubleSubmitDirective </title>
<path fill="none" stroke="#000000" stroke-dasharray="5,2" d="M322,-187.1061C322,-187.1061 322,-205.991 322,-205.991"/>
<polygon fill="#000000" stroke="#000000" points="318.5001,-205.9909 322,-215.991 325.5001,-205.991 318.5001,-205.9909"/>
</g>
</g>
</svg>
